<svg width="254" height="75" viewBox="0 0 254 75" fill="none" xmlns="http://www.w3.org/2000/svg">
<path d="M64.5337 35.8253L55.9471 36.3537C55.8003 35.6198 55.4847 34.9593 55.0003 34.3722C54.516 33.7704 53.8775 33.2933 53.0848 32.941C52.3069 32.5741 51.3749 32.3906 50.2887 32.3906C48.8356 32.3906 47.6099 32.6989 46.6118 33.3153C45.6137 33.9171 45.1147 34.7244 45.1147 35.7372C45.1147 36.5445 45.4376 37.227 46.0834 37.7848C46.7293 38.3426 47.8375 38.7902 49.408 39.1278L55.5287 40.3608C58.8166 41.036 61.2679 42.1222 62.8824 43.6193C64.497 45.1165 65.3043 47.0833 65.3043 49.5199C65.3043 51.7363 64.6511 53.6811 63.3448 55.3544C62.0531 57.0277 60.2771 58.334 58.0167 59.2734C55.7709 60.1982 53.1803 60.6605 50.2447 60.6605C45.7679 60.6605 42.2011 59.7285 39.5444 57.8643C36.9023 55.9856 35.3538 53.4316 34.8988 50.2024L44.1239 49.718C44.4028 51.0831 45.078 52.1252 46.1495 52.8445C47.221 53.549 48.5934 53.9013 50.2667 53.9013C51.9106 53.9013 53.2316 53.5857 54.2297 52.9545C55.2425 52.3087 55.7563 51.4794 55.7709 50.4666C55.7563 49.6153 55.3966 48.9181 54.6921 48.375C53.9875 47.8172 52.9014 47.3916 51.4336 47.098L45.577 45.9311C42.2745 45.2706 39.8159 44.1257 38.2013 42.4964C36.6014 40.8672 35.8015 38.7902 35.8015 36.2656C35.8015 34.0933 36.3886 32.2218 37.5628 30.6513C38.7518 29.0807 40.4177 27.8698 42.5607 27.0185C44.7184 26.1671 47.243 25.7415 50.1346 25.7415C54.4059 25.7415 57.7671 26.6442 60.2184 28.4496C62.6843 30.255 64.1227 32.7135 64.5337 35.8253ZM80.5896 40.4489V60H71.2104V14.9091H80.3254V32.1484H80.7217C81.485 30.1522 82.718 28.589 84.4206 27.4588C86.1233 26.3139 88.2589 25.7415 90.8276 25.7415C93.1761 25.7415 95.2236 26.2552 96.9703 27.2827C98.7317 28.2955 100.097 29.7559 101.065 31.6641C102.049 33.5575 102.533 35.8253 102.519 38.4673V60H93.1394V40.1406C93.154 38.0563 92.6256 36.4344 91.5541 35.2749C90.4973 34.1153 89.0148 33.5355 87.1067 33.5355C85.8297 33.5355 84.6995 33.8071 83.7161 34.3501C82.7473 34.8932 81.9841 35.6858 81.4263 36.728C80.8832 37.7554 80.6043 38.9957 80.5896 40.4489ZM109.9 60V26.1818H119.279V60H109.9ZM114.611 21.8224C113.217 21.8224 112.021 21.3601 111.023 20.4354C110.039 19.496 109.548 18.3731 109.548 17.0668C109.548 15.7751 110.039 14.6669 111.023 13.7422C112.021 12.8028 113.217 12.3331 114.611 12.3331C116.006 12.3331 117.195 12.8028 118.178 13.7422C119.176 14.6669 119.675 15.7751 119.675 17.0668C119.675 18.3731 119.176 19.496 118.178 20.4354C117.195 21.3601 116.006 21.8224 114.611 21.8224ZM144.978 26.1818V33.2273H124.106V26.1818H144.978ZM128.884 60V23.7379C128.884 21.2867 129.361 19.2538 130.315 17.6392C131.284 16.0246 132.605 14.8137 134.278 14.0064C135.952 13.1991 137.852 12.7955 139.981 12.7955C141.419 12.7955 142.733 12.9055 143.922 13.1257C145.125 13.3459 146.021 13.544 146.608 13.7202L144.934 20.7656C144.568 20.6482 144.112 20.5381 143.569 20.4354C143.041 20.3326 142.498 20.2812 141.94 20.2812C140.56 20.2812 139.599 20.6042 139.056 21.25C138.513 21.8812 138.241 22.7692 138.241 23.9141V60H128.884ZM168.696 26.1818V33.2273H148.331V26.1818H168.696ZM152.954 18.0795H162.333V49.608C162.333 50.474 162.466 51.1491 162.73 51.6335C162.994 52.1032 163.361 52.4335 163.831 52.6243C164.315 52.8151 164.873 52.9105 165.504 52.9105C165.944 52.9105 166.385 52.8738 166.825 52.8004C167.265 52.7124 167.603 52.6463 167.838 52.6023L169.313 59.5817C168.843 59.7285 168.183 59.8973 167.331 60.0881C166.48 60.2936 165.445 60.4183 164.227 60.4624C161.966 60.5504 159.985 60.2495 158.282 59.5597C156.594 58.8698 155.281 57.7983 154.341 56.3452C153.402 54.892 152.939 53.0573 152.954 50.8409V18.0795Z" fill="white"/>
<path d="M115.559 17.0705C114.344 17.2272 105.956 20.0791 109.636 21.9662C113.052 23.718 123.265 16.2303 120.179 12.8531C117.836 10.2885 114.022 11.0012 113.01 14.2284C112.732 15.1153 112.88 17.1956 114.422 16.3003C117.029 14.7865 112.794 12.6844 111.745 12.4314C110.107 12.0366 105.788 11.2784 104.887 13.4766C103.786 16.1636 108.124 19.5294 110.314 19.9676C113.567 20.6182 115.277 15.1635 111.305 15.1635C108.475 15.1635 111.469 19.9446 114.128 17.4372C116.393 15.3018 113.002 12.507 112.405 14.7601C111.835 16.9091 118.892 16.2475 118.034 14.9068C117.513 14.0926 116.099 13.4898 115.155 13.5866C113.093 13.798 114.701 17.3155 115.192 18.1706C115.459 18.6363 117.042 21.2834 117.942 20.1876C118.825 19.1127 118.847 17.0083 118.181 15.8419C116.95 13.6882 115.668 15.9384 116.109 17.5105C116.229 17.941 116.805 18.4664 116.805 17.6389C116.805 16.4832 116 15.6745 114.898 15.4935C112.995 15.181 113.139 16.8141 114.532 17.5105C114.967 17.7284 114.568 17.2151 114.568 18.0606C114.568 18.2594 113.929 17.3046 113.578 17.0705" stroke="#3076FC" stroke-width="3" stroke-linecap="round"/>
<g clip-path="url(#clip0_439_85)">
<path d="M121.795 2.58513L115.984 20.1024C115.937 20.2408 115.848 20.361 115.729 20.4461C115.611 20.5311 115.468 20.5766 115.322 20.5763C115.17 20.5697 115.025 20.5137 114.908 20.4168C114.791 20.32 114.709 20.1876 114.674 20.0397L112.5 11.0233L103.442 8.87715C103.295 8.8427 103.163 8.7616 103.067 8.64602C102.97 8.53044 102.913 8.38661 102.905 8.2361C102.897 8.08415 102.939 7.93379 103.025 7.80797C103.11 7.68215 103.235 7.58779 103.379 7.53931L120.917 1.70021C121.04 1.65975 121.172 1.65433 121.298 1.68455C121.424 1.71477 121.538 1.77944 121.63 1.87132C121.721 1.96319 121.785 2.07864 121.814 2.20472C121.843 2.3308 121.837 2.46252 121.795 2.58513Z" fill="#F2D406"/>
<path d="M107.524 15.503C107.524 16.3331 107.767 16.3102 108.288 16.8315C108.837 17.3809 108.888 15.6937 108.554 15.503C108.136 15.2641 107.577 14.3812 107.524 14.4734C107.445 14.6112 106.88 15.0251 106.993 15.1376C107.186 15.3314 107.788 15.2054 107.956 15.038C108.831 14.1629 107.84 15.2133 107.823 15.503C107.782 16.195 107.823 16.902 107.823 17.5954C107.823 18.3717 108.075 21.2568 108.122 20.8835C108.189 20.3441 108.421 19.8982 108.421 19.2394C108.421 18.534 107.689 18.0988 107.507 17.4625C107.335 16.8585 106.627 16.3996 106.627 15.9514C106.627 15.3625 105.265 15.2634 105.149 15.6691C104.889 16.5817 105.056 18.6694 106.03 18.7911C106.091 18.7987 107.252 19.8889 107.458 20.0532C107.943 20.4416 108.743 20.0336 109.019 20.5846" stroke="#3076FC" stroke-width="3" stroke-linecap="round"/>
<path d="M109.092 14.1049C109.441 14.1049 109.59 14.0844 109.825 13.823C110.034 13.5904 110.107 13.5323 110.107 13.9781C110.107 14.4744 110.152 13.6989 110.079 13.6257C109.84 13.3873 109.599 13.7981 109.599 13.9781" stroke="#3076FC" stroke-width="3" stroke-linecap="round"/>
</g>
<g clip-path="url(#clip1_439_85)">
<path d="M235.075 23.3108H191.904C190.198 23.3108 188.562 23.9883 187.357 25.1943C186.151 26.4003 185.473 28.0359 185.473 29.7415V50.4911C185.476 51.5732 185.907 52.6102 186.672 53.3754C187.437 54.1406 188.474 54.5717 189.556 54.5746H190.896C191.196 54.5708 191.486 54.4613 191.713 54.2652C191.941 54.0692 192.092 53.7992 192.139 53.5028C192.404 51.7386 193.298 50.1298 194.656 48.9735C196.014 47.8173 197.745 47.1918 199.529 47.2127C201.313 47.2336 203.029 47.8995 204.36 49.0873C205.69 50.275 206.546 51.9044 206.769 53.6742C206.801 53.9357 206.928 54.1763 207.125 54.3503C207.323 54.5242 207.578 54.6193 207.841 54.6174H231.281C231.612 54.6104 231.929 54.4858 232.177 54.2658C232.424 54.0458 232.585 53.7449 232.631 53.417C232.929 51.6593 233.851 50.0681 235.229 48.9365C236.606 47.805 238.346 47.2091 240.128 47.2587C241.91 47.3082 243.615 47.9999 244.927 49.2063C246.24 50.4127 247.072 52.0527 247.272 53.8243C247.298 54.0422 247.403 54.2431 247.566 54.3891C247.73 54.5352 247.942 54.6164 248.161 54.6174H248.654C249.85 54.6146 250.996 54.1383 251.842 53.2927C252.687 52.4471 253.164 51.3011 253.166 50.1052V41.4453C253.172 39.0659 252.708 36.7087 251.802 34.5088C250.895 32.3088 249.563 30.3093 247.883 28.6248C246.202 26.9403 244.206 25.6039 242.008 24.692C239.81 23.7802 237.454 23.3108 235.075 23.3108ZM196.309 39.6768C196.309 40.4273 196.011 41.1469 195.48 41.6776C194.949 42.2082 194.23 42.5063 193.479 42.5063H192.407C191.193 42.5063 190.028 42.0245 189.168 41.1666C188.308 40.3086 187.823 39.1446 187.82 37.9299V30.3524C187.823 29.1376 188.308 27.9736 189.168 27.1157C190.028 26.2577 191.193 25.7759 192.407 25.7759H193.479C194.23 25.7759 194.949 26.074 195.48 26.6046C196.011 27.1353 196.309 27.8549 196.309 28.6054V39.6768ZM207.337 40.3306C207.337 40.8991 207.111 41.4444 206.709 41.8464C206.307 42.2483 205.762 42.4742 205.194 42.4742H200.596C200.027 42.4742 199.482 42.2483 199.08 41.8464C198.678 41.4444 198.452 40.8991 198.452 40.3306V27.9409C198.452 27.3724 198.678 26.8271 199.08 26.4252C199.482 26.0232 200.027 25.7973 200.596 25.7973H205.194C205.762 25.7973 206.307 26.0232 206.709 26.4252C207.111 26.8271 207.337 27.3724 207.337 27.9409V40.3306ZM218.269 40.4271C218.271 40.6996 218.218 40.9698 218.115 41.222C218.012 41.4742 217.86 41.7035 217.667 41.8967C217.475 42.0899 217.247 42.2432 216.995 42.3479C216.743 42.4525 216.473 42.5063 216.201 42.5063H211.506C211.234 42.5063 210.964 42.4525 210.712 42.3479C210.461 42.2432 210.232 42.0899 210.04 41.8967C209.848 41.7035 209.696 41.4742 209.592 41.222C209.489 40.9698 209.437 40.6996 209.438 40.4271V27.8551C209.437 27.5826 209.489 27.3125 209.592 27.0602C209.696 26.808 209.848 26.5787 210.04 26.3855C210.232 26.1923 210.461 26.039 210.712 25.9344C210.964 25.8297 211.234 25.7759 211.506 25.7759H216.201C216.473 25.7759 216.743 25.8297 216.995 25.9344C217.247 26.039 217.475 26.1923 217.667 26.3855C217.86 26.5787 218.012 26.808 218.115 27.0602C218.218 27.3125 218.271 27.5826 218.269 27.8551V40.4271ZM230.445 40.5235C230.445 40.7839 230.393 41.0418 230.294 41.2823C230.194 41.5229 230.048 41.7415 229.864 41.9256C229.68 42.1097 229.461 42.2557 229.221 42.3554C228.98 42.455 228.722 42.5063 228.462 42.5063H222.353C221.827 42.5063 221.323 42.2974 220.951 41.9256C220.579 41.5537 220.37 41.0494 220.37 40.5235V27.7587C220.37 27.4983 220.421 27.2405 220.521 26.9999C220.621 26.7593 220.767 26.5408 220.951 26.3566C221.135 26.1725 221.354 26.0265 221.594 25.9268C221.835 25.8272 222.092 25.7759 222.353 25.7759H228.462C228.722 25.7759 228.98 25.8272 229.221 25.9268C229.461 26.0265 229.68 26.1725 229.864 26.3566C230.048 26.5408 230.194 26.7593 230.294 26.9999C230.393 27.2405 230.445 27.4983 230.445 27.7587V40.5235ZM248.183 42.1098C247.004 42.6885 244.324 42.5063 242.91 42.5063H234.496C233.976 42.5063 233.477 42.2997 233.109 41.9319C232.741 41.564 232.535 41.0651 232.535 40.545V27.7372C232.535 27.2171 232.741 26.7182 233.109 26.3504C233.477 25.9825 233.976 25.7759 234.496 25.7759H236.447C242.877 25.7759 248.236 29.645 249.308 36.29C249.501 37.7477 249.865 41.2845 248.183 42.1098Z" fill="white"/>
<path d="M199.449 48.5512C198.258 48.5512 197.093 48.9044 196.103 49.5663C195.112 50.2281 194.34 51.1689 193.884 52.2695C193.428 53.3701 193.309 54.5813 193.541 55.7497C193.774 56.9181 194.347 57.9914 195.19 58.8338C196.032 59.6761 197.106 60.2498 198.274 60.4822C199.442 60.7146 200.653 60.5954 201.754 60.1395C202.855 59.6836 203.795 58.9115 204.457 57.921C205.119 56.9304 205.472 55.7659 205.472 54.5746C205.472 52.9771 204.838 51.445 203.708 50.3154C202.579 49.1858 201.047 48.5512 199.449 48.5512ZM199.449 58.0042C198.771 58.0042 198.108 57.8031 197.544 57.4263C196.98 57.0494 196.54 56.5137 196.28 55.8871C196.021 55.2604 195.953 54.5708 196.085 53.9055C196.218 53.2402 196.544 52.6291 197.024 52.1494C197.504 51.6698 198.115 51.3431 198.78 51.2108C199.445 51.0784 200.135 51.1464 200.762 51.406C201.388 51.6655 201.924 52.1051 202.301 52.6691C202.678 53.2331 202.879 53.8962 202.879 54.5746C202.879 55.4842 202.517 56.3565 201.874 56.9997C201.231 57.6429 200.359 58.0042 199.449 58.0042ZM239.919 48.5512C238.728 48.5533 237.565 48.9084 236.576 49.5715C235.587 50.2347 234.816 51.1761 234.362 52.2769C233.908 53.3777 233.79 54.5885 234.024 55.7562C234.257 56.9239 234.832 57.9962 235.675 58.8375C236.517 59.6788 237.591 60.2514 238.759 60.483C239.927 60.7145 241.138 60.5946 242.238 60.1384C243.338 59.6822 244.278 58.9102 244.939 57.9199C245.6 56.9296 245.953 55.7654 245.953 54.5746C245.953 53.7827 245.797 52.9985 245.494 52.267C245.191 51.5355 244.746 50.8711 244.185 50.3116C243.625 49.7521 242.96 49.3087 242.228 49.0066C241.496 48.7045 240.711 48.5497 239.919 48.5512ZM239.919 58.0042C239.241 58.0042 238.578 57.8031 238.014 57.4263C237.45 57.0494 237.01 56.5137 236.751 55.8871C236.491 55.2604 236.423 54.5708 236.556 53.9055C236.688 53.2402 237.015 52.6291 237.494 52.1494C237.974 51.6698 238.585 51.3431 239.25 51.2108C239.916 51.0784 240.605 51.1464 241.232 51.406C241.859 51.6655 242.394 52.1051 242.771 52.6691C243.148 53.2331 243.349 53.8962 243.349 54.5746C243.349 55.4842 242.988 56.3565 242.345 56.9997C241.701 57.6429 240.829 58.0042 239.919 58.0042Z" fill="white"/>
</g>
<defs>
<clipPath id="clip0_439_85">
<rect width="22.2973" height="22.2973" fill="white" transform="translate(101.351)"/>
</clipPath>
<clipPath id="clip1_439_85">
<rect width="67.6934" height="37.2872" fill="white" transform="translate(185.473 23.3108)"/>
</clipPath>
</defs>
</svg>
